<?xml version="1.0" encoding="UTF-8" standalone="no"?>
<!DOCTYPE svg PUBLIC "-//W3C//DTD SVG 1.1//EN" "http://www.w3.org/Graphics/SVG/1.1/DTD/svg11.dtd">
<svg version="1.1" xmlns="http://www.w3.org/2000/svg" xmlns:xlink="http://www.w3.org/1999/xlink" preserveAspectRatio="xMidYMid meet" viewBox="156.89473684210503 2.9999999999995737 403.39058183368917 502.10526315789525" width="399.39" height="498.11"><defs><path d="M429.47 421.58L429.36 424.9L429.02 428.18L428.47 431.43L427.7 434.63L426.71 437.8L425.52 440.92L424.13 444L422.55 447.02L420.77 449.99L418.8 452.91L416.64 455.77L414.31 458.57L411.8 461.31L409.12 463.98L406.27 466.59L403.26 469.12L400.09 471.59L396.77 473.97L393.3 476.28L389.68 478.51L385.93 480.65L382.03 482.71L378.01 484.68L373.86 486.56L369.58 488.34L365.19 490.03L360.68 491.62L356.07 493.11L351.34 494.5L346.52 495.77L341.6 496.94L336.58 498L331.48 498.94L326.3 499.76L321.04 500.47L315.7 501.05L310.29 501.51L304.81 501.84L299.28 502.04L293.68 502.11L288.09 502.04L282.55 501.84L277.08 501.51L271.67 501.05L266.33 500.47L261.07 499.76L255.88 498.94L250.78 498L245.77 496.94L240.85 495.77L236.03 494.5L231.3 493.11L226.69 491.62L222.18 490.03L217.79 488.34L213.51 486.56L209.36 484.68L205.33 482.71L201.44 480.65L197.69 478.51L194.07 476.28L190.6 473.97L187.28 471.59L184.11 469.12L181.1 466.59L178.25 463.98L175.57 461.31L173.06 458.57L170.73 455.77L168.57 452.91L166.6 449.99L164.82 447.02L163.23 444L161.84 440.92L160.66 437.8L159.67 434.63L158.9 431.43L158.35 428.18L158.01 424.9L157.89 421.58L157.89 324.74L429.47 324.74L429.47 421.58Z" id="c1AwyI5Mtt"></path><linearGradient id="gradientbl8aJfrRs" gradientUnits="userSpaceOnUse" x1="429.47" y1="497.37" x2="157.89" y2="497.37"><stop style="stop-color: #6aa700;stop-opacity: 1" offset="0%"></stop><stop style="stop-color: #99ff00;stop-opacity: 1" offset="47.89881676666494%"></stop><stop style="stop-color: #579000;stop-opacity: 1" offset="100%"></stop></linearGradient><path d="M429.47 320C429.47 364.44 368.63 400.53 293.68 400.53C218.74 400.53 157.89 364.44 157.89 320C157.89 275.56 218.74 239.47 293.68 239.47C368.63 239.47 429.47 275.56 429.47 320Z" id="aDagndUGq"></path><path d="M321.32 315.15L321.21 316.28L321.02 317.39L320.76 318.48L320.43 319.56L320.03 320.61L319.57 321.64L319.04 322.65L318.45 323.62L317.81 324.58L317.1 325.5L316.34 326.39L315.52 327.25L314.65 328.08L313.73 328.87L312.76 329.63L311.74 330.35L310.68 331.03L309.58 331.66L308.43 332.26L307.25 332.81L306.03 333.32L304.77 333.77L303.48 334.19L302.16 334.55L300.81 334.86L299.43 335.11L298.03 335.31L296.6 335.46L295.15 335.55L293.68 335.58L292.22 335.55L290.77 335.46L289.34 335.31L287.94 335.11L286.56 334.86L285.21 334.55L283.89 334.19L282.6 333.77L281.34 333.32L280.12 332.81L278.94 332.26L277.79 331.66L276.69 331.03L275.63 330.35L274.61 329.63L273.64 328.87L272.72 328.08L271.85 327.25L271.03 326.39L270.27 325.5L269.56 324.58L268.91 323.62L268.32 322.65L267.8 321.64L267.34 320.61L266.94 319.56L266.61 318.48L266.35 317.39L266.16 316.28L266.05 315.15L266.01 314L266.01 18.21L321.36 18.21L321.36 314L321.36 314L321.32 315.15Z" id="c2w5Y1v0i3"></path><linearGradient id="gradientc5J9vMmN" gradientUnits="userSpaceOnUse" x1="320" y1="204" x2="266.01" y2="204"><stop style="stop-color: #d77700;stop-opacity: 1" offset="0%"></stop><stop style="stop-color: #ff8d00;stop-opacity: 1" offset="44.02257551192729%"></stop><stop style="stop-color: #8c5c00;stop-opacity: 1" offset="100%"></stop></linearGradient><path d="M321.36 18.21C321.36 26.05 308.96 32.42 293.68 32.42C278.41 32.42 266.01 26.05 266.01 18.21C266.01 10.37 278.41 4 293.68 4C308.96 4 321.36 10.37 321.36 18.21Z" id="an1hCQ9zs"></path><path d="M321.36 161.34C342.5 157.13 378.54 148.36 429.47 135.03C480.41 121.69 523.01 118.19 557.29 124.5C525.71 91.52 483.1 70.42 429.47 61.2C375.84 51.99 339.35 38.7 320 21.34L321.36 161.34Z" id="dOuUVM3N3"></path><linearGradient id="gradientg2b7cFedPu" gradientUnits="userSpaceOnUse" x1="553.64" y1="121.34" x2="320" y2="96.34"><stop style="stop-color: #06ab00;stop-opacity: 1" offset="0%"></stop><stop style="stop-color: #2ad715;stop-opacity: 1" offset="41.70984088973984%"></stop><stop style="stop-color: #35bc00;stop-opacity: 1" offset="71.51209803804309%"></stop><stop style="stop-color: #25aa02;stop-opacity: 1" offset="100%"></stop></linearGradient></defs><g><g><use xlink:href="#c1AwyI5Mtt" opacity="1" fill="url(#gradientbl8aJfrRs)"></use></g><g><use xlink:href="#aDagndUGq" opacity="1" fill="#304b00" fill-opacity="1"></use></g><g><use xlink:href="#c2w5Y1v0i3" opacity="1" fill="url(#gradientc5J9vMmN)"></use></g><g><use xlink:href="#an1hCQ9zs" opacity="1" fill="#774200" fill-opacity="1"></use></g><g><use xlink:href="#dOuUVM3N3" opacity="1" fill="url(#gradientg2b7cFedPu)"></use></g></g></svg>