<svg width="403.39058183368917" height="502.10526315789525" xmlns="http://www.w3.org/2000/svg" xmlns:svg="http://www.w3.org/2000/svg" preserveAspectRatio="xMidYMid meet">
 <defs>
  <path d="m429.47,421.58l-0.11,3.32l-0.34,3.28l-0.55,3.25l-0.77,3.2l-0.99,3.17l-1.19,3.12l-1.39,3.08l-1.58,3.02l-1.78,2.97l-1.97,2.92l-2.16,2.86l-2.33,2.8l-2.51,2.74l-2.68,2.67l-2.85,2.61l-3.01,2.53l-3.17,2.47l-3.32,2.38l-3.47,2.31l-3.62,2.23l-3.75,2.14l-3.9,2.06l-4.02,1.97l-4.15,1.88l-4.28,1.78l-4.39,1.69l-4.51,1.59l-4.61,1.49l-4.73,1.39l-4.82,1.27l-4.92,1.17l-5.02,1.06l-5.1,0.94l-5.18,0.82l-5.26,0.71l-5.34,0.58l-5.41,0.46l-5.48,0.33l-5.53,0.2l-5.6,0.07l-5.59,-0.07l-5.54,-0.2l-5.47,-0.33l-5.41,-0.46l-5.34,-0.58l-5.26,-0.71l-5.19,-0.82l-5.1,-0.94l-5.01,-1.06l-4.92,-1.17l-4.82,-1.27l-4.73,-1.39l-4.61,-1.49l-4.51,-1.59l-4.39,-1.69l-4.28,-1.78l-4.15,-1.88l-4.03,-1.97l-3.89,-2.06l-3.75,-2.14l-3.62,-2.23l-3.47,-2.31l-3.32,-2.38l-3.17,-2.47l-3.01,-2.53l-2.85,-2.61l-2.68,-2.67l-2.51,-2.74l-2.33,-2.8l-2.16,-2.86l-1.97,-2.92l-1.78,-2.97l-1.59,-3.02l-1.39,-3.08l-1.18,-3.12l-0.99,-3.17l-0.77,-3.2l-0.55,-3.25l-0.34,-3.28l-0.12,-3.32l0,-96.84l271.58,0l0,96.84z" id="c1AwyI5Mtt" stroke="null"/>
  <path d="m429.47,320c0,44.44 -60.84,80.53 -135.79,80.53c-74.94,0 -135.79,-36.09 -135.79,-80.53c0,-44.44 60.85,-80.53 135.79,-80.53c74.95,0 135.79,36.09 135.79,80.53z" id="aDagndUGq" stroke="null"/>
  <path d="m321.32,315.15l-0.11,1.13l-0.19,1.11l-0.26,1.09l-0.33,1.08l-0.4,1.05l-0.46,1.03l-0.53,1.01l-0.59,0.97l-0.64,0.96l-0.71,0.92l-0.76,0.89l-0.82,0.86l-0.87,0.83l-0.92,0.79l-0.97,0.76l-1.02,0.72l-1.06,0.68l-1.1,0.63l-1.15,0.6l-1.18,0.55l-1.22,0.51l-1.26,0.45l-1.29,0.42l-1.32,0.36l-1.35,0.31l-1.38,0.25l-1.4,0.2l-1.43,0.15l-1.45,0.09l-1.47,0.03l-1.46,-0.03l-1.45,-0.09l-1.43,-0.15l-1.4,-0.2l-1.38,-0.25l-1.35,-0.31l-1.32,-0.36l-1.29,-0.42l-1.26,-0.45l-1.22,-0.51l-1.18,-0.55l-1.15,-0.6l-1.1,-0.63l-1.06,-0.68l-1.02,-0.72l-0.97,-0.76l-0.92,-0.79l-0.87,-0.83l-0.82,-0.86l-0.76,-0.89l-0.71,-0.92l-0.65,-0.96l-0.59,-0.97l-0.52,-1.01l-0.46,-1.03l-0.4,-1.05l-0.33,-1.08l-0.26,-1.09l-0.19,-1.11l-0.11,-1.13l-0.04,-1.15l0,-295.79l55.35,0l0,295.79l0,0l-0.04,1.15z" id="c2w5Y1v0i3" stroke="null"/>
  <path d="m321.36,18.21c0,7.84 -12.4,14.21 -27.68,14.21c-15.27,0 -27.67,-6.37 -27.67,-14.21c0,-7.84 12.4,-14.21 27.67,-14.21c15.28,0 27.68,6.37 27.68,14.21z" id="an1hCQ9zs" stroke="null"/>
  <path d="m321.36,161.34c21.14,-4.21 57.18,-12.98 108.11,-26.31c50.94,-13.34 93.54,-16.84 127.82,-10.53c-31.58,-32.98 -74.19,-54.08 -127.82,-63.3c-53.63,-9.21 -90.12,-22.5 -109.47,-39.86l1.36,140z" id="dOuUVM3N3" stroke="null"/>
  <pattern height="100" width="100" y="0" x="0" patternUnits="userSpaceOnUse" id="gridpattern">
   <image height="100" width="100" y="0" x="0"/>
  </pattern>
 </defs>
 <g stroke="null">
  <title>Layer 1</title>
  <g id="svg_16" stroke="null"/>
  <g id="svg_30" stroke="null"/>
  <rect stroke="#000000" id="svg_6" height="117" width="224.00001" y="208.89474" x="14.69528" stroke-width="0" fill="#31e200"/>
  <rect stroke="#000000" id="svg_8" height="126.00001" width="199" y="323.89474" x="26.69528" stroke-linecap="null" stroke-linejoin="null" stroke-dasharray="null" stroke-width="0" fill="#2dc100"/>
  <ellipse stroke="#2dc100" ry="28" rx="105.5" id="svg_10" cy="208.89474" cx="126.19528" stroke-linecap="null" stroke-linejoin="null" stroke-dasharray="null" stroke-width="11" fill="#000000"/>
  <ellipse stroke="#000000" id="svg_12" ry="31" rx="111.5" cy="328.39473" cx="126.60942" stroke-linecap="null" stroke-linejoin="null" stroke-dasharray="null" stroke-width="0" fill="#31e200"/>
  <ellipse stroke="#000000" id="svg_13" ry="41" rx="99" cy="446.39472" cx="126.10942" stroke-linecap="null" stroke-linejoin="null" stroke-dasharray="null" stroke-width="0" fill="#2dc100"/>
 </g>
</svg>
