<svg width="399" height="498" xmlns="http://www.w3.org/2000/svg" xmlns:svg="http://www.w3.org/2000/svg" xmlns:xlink="http://www.w3.org/1999/xlink" preserveAspectRatio="xMidYMid meet">
 <defs>
  <path id="bwO5y3pxv" d="m373.72,484.3l-0.34,3.25l-0.55,3.21l-0.76,3.17l-0.98,3.13l-1.17,3.09l-1.38,3.05l-1.56,2.98l-1.76,2.94l-1.95,2.89l-2.14,2.83l-2.3,2.77l-2.48,2.71l-2.65,2.64l-2.82,2.58l-2.98,2.5l-3.14,2.45l-3.28,2.35l-3.43,2.28l-3.58,2.21l-3.71,2.12l-3.86,2.03l-3.98,1.95l-4.1,1.86l-4.23,1.76l-4.35,1.67l-4.46,1.58l-4.56,1.47l-4.68,1.38l-4.76,1.25l-4.87,1.16l-4.96,1.05l-5.05,0.93l-5.12,0.81l-5.21,0.7l-5.28,0.57l-5.35,0.46l-5.42,0.33l-5.47,0.19l-5.54,0.07l-5.53,-0.07l-5.48,-0.19l-5.41,-0.33l-5.35,-0.46l-5.28,-0.57l-5.2,-0.7l-5.14,-0.81l-5.04,-0.93l-4.96,-1.05l-4.86,-1.16l-4.77,-1.25l-4.68,-1.38l-4.56,-1.47l-4.46,-1.58l-4.34,-1.67l-4.24,-1.76l-4.1,-1.86l-3.99,-1.95l-3.84,-2.03l-3.71,-2.12l-3.58,-2.21l-3.44,-2.28l-3.28,-2.35l-3.14,-2.45l-2.97,-2.5l-2.82,-2.58l-2.65,-2.64l-2.49,-2.71l-2.3,-2.77l-2.14,-2.83l-1.94,-2.89l-1.77,-2.94l-1.57,-2.98l-1.37,-3.05l-1.17,-3.09l-0.98,-3.13l-0.76,-3.17l-0.55,-3.21l-0.33,-3.25l-0.12,-3.28l0,-95.79l268.62,0l0,95.79l-0.1,3.28z"/>
  <linearGradient y2="0.97327" x2="0" y1="0.97327" x1="1" id="gradientbkvS1IY3T">
   <stop stop-color="#a5a700" offset="0%"/>
   <stop stop-color="#c7d715" offset="47.89881676666494%"/>
   <stop stop-color="#908300" offset="100%"/>
  </linearGradient>
  <path id="aN2OjkYWW" d="m373.82,194.49c50.38,-13.19 92.52,-16.65 126.43,-10.41c-31.24,-32.62 -73.38,-53.49 -126.43,-62.61c-53.05,-9.11 -89.14,-22.26 -108.28,-39.43c0.09,9.23 0.54,55.39 1.35,138.48c37.7,-8.56 73.35,-17.24 106.93,-26.03z"/>
  <linearGradient y2="0.53567" x2="0" y1="0.71425" x1="0.98462" id="gradienta5o9bbYWMg">
   <stop stop-color="#ab9500" offset="0%"/>
   <stop stop-color="#d7c515" offset="41.70984088973984%"/>
   <stop stop-color="#bca400" offset="71.51209803804309%"/>
   <stop stop-color="#aa9a02" offset="100%"/>
  </linearGradient>
  <path id="a1SULLtfLE" d="m239.51,460.2c-74.13,0 -134.32,-35.7 -134.32,-79.65c0,-43.96 60.19,-79.66 134.32,-79.66c74.13,0 134.31,35.7 134.31,79.66c0,43.95 -60.18,79.65 -134.31,79.65z"/>
  <path id="d1NzO4QAl" d="m266.74,376.87l-0.19,1.09l-0.26,1.08l-0.32,1.07l-0.4,1.04l-0.45,1.02l-0.53,1l-0.58,0.96l-0.64,0.95l-0.7,0.91l-0.75,0.88l-0.81,0.85l-0.86,0.82l-0.91,0.78l-0.96,0.75l-1.01,0.71l-1.05,0.68l-1.09,0.62l-1.13,0.59l-1.17,0.55l-1.21,0.5l-1.24,0.45l-1.28,0.41l-1.31,0.36l-1.33,0.3l-1.37,0.25l-1.38,0.2l-1.41,0.15l-1.44,0.09l-1.45,0.03l-1.45,-0.03l-1.43,-0.09l-1.42,-0.15l-1.38,-0.2l-1.37,-0.25l-1.33,-0.3l-1.31,-0.36l-1.27,-0.41l-1.25,-0.45l-1.21,-0.5l-1.16,-0.55l-1.14,-0.59l-1.09,-0.62l-1.05,-0.68l-1.01,-0.71l-0.95,-0.75l-0.91,-0.78l-0.87,-0.82l-0.81,-0.85l-0.75,-0.88l-0.7,-0.91l-0.64,-0.95l-0.59,-0.96l-0.51,-1l-0.46,-1.02l-0.39,-1.04l-0.33,-1.07l-0.26,-1.08l-0.18,-1.09l-0.11,-1.12l-0.04,-1.14l0,-292.57l54.75,0l0,292.57l0,0l-0.04,1.14l-0.11,1.12z"/>
  <linearGradient y2="0.5854" x2="0" y1="0.5854" x1="0.97534" id="gradientbe146WB0t">
   <stop stop-color="#d77700" offset="0%"/>
   <stop stop-color="#ff8d00" offset="44.02257551192729%"/>
   <stop stop-color="#8c5c00" offset="100%"/>
  </linearGradient>
  <path id="hYKZt03YC" d="m239.51,96.1c-15.11,0 -27.37,-6.31 -27.37,-14.06c0,-7.75 12.26,-14.06 27.37,-14.06c15.11,0 27.38,6.31 27.38,14.06c0,7.75 -12.27,14.06 -27.38,14.06z"/>
 </defs>
 <g>
  <title>Layer 1</title>
  <g id="svg_1">
   <g id="svg_2">
    <g id="svg_3">
     <use id="svg_4" fill="url(#gradientbkvS1IY3T)" xlink:href="#bwO5y3pxv" y="-63.20988" x="-96.92181"/>
     <g id="svg_5">
      <use id="svg_6" stroke-opacity="0" stroke="#000000" fill-opacity="0" xlink:href="#bwO5y3pxv" y="-63.20988" x="-96.92181"/>
     </g>
    </g>
    <g id="svg_7">
     <use id="svg_8" fill="url(#gradienta5o9bbYWMg)" xlink:href="#aN2OjkYWW" y="-63.20988" x="-96.92181"/>
     <g id="svg_9">
      <use id="svg_10" stroke-opacity="0" stroke="#000000" fill-opacity="0" xlink:href="#aN2OjkYWW" y="-63.20988" x="-96.92181"/>
     </g>
    </g>
    <g id="svg_11">
     <use id="svg_12" fill="#4b4700" xlink:href="#a1SULLtfLE" y="-63.20988" x="-96.92181"/>
     <g id="svg_13">
      <use id="svg_14" stroke-opacity="0" stroke="#000000" fill-opacity="0" xlink:href="#a1SULLtfLE" y="-63.20988" x="-96.92181"/>
     </g>
    </g>
    <g id="svg_15">
     <use id="svg_16" fill="url(#gradientbe146WB0t)" xlink:href="#d1NzO4QAl" y="-63.20988" x="-96.92181"/>
     <g id="svg_17">
      <use id="svg_18" stroke-opacity="0" stroke="#000000" fill-opacity="0" xlink:href="#d1NzO4QAl" y="-63.20988" x="-96.92181"/>
     </g>
    </g>
    <g id="svg_19">
     <use id="svg_20" fill="#774200" xlink:href="#hYKZt03YC" y="-63.20988" x="-96.92181"/>
     <g id="svg_21">
      <use id="svg_22" stroke-opacity="0" stroke="#000000" fill-opacity="0" xlink:href="#hYKZt03YC" y="-63.20988" x="-96.92181"/>
     </g>
    </g>
   </g>
  </g>
  <text style="cursor: text;" stroke="#000000" transform="matrix(4.510412420494106,0,0,3.340104579925537,-414.88491364898755,-969.6442711725831) " xml:space="preserve" text-anchor="middle" font-family="serif" font-size="24" id="svg_23" y="326.1232" x="146.19417" stroke-width="0" fill="#ff0000">3</text>
 </g>
</svg>